/* XPM */
static char * mallard_small_xpm[] = {
"16 16 8 1",
" 	c #B9B9C1C1E2E2",
".	c #000032321010",
"X	c #121284843131",
"o	c #FFFFFFFF0000",
"O	c #FFFFFFFFFFFF",
"+	c #1F1F13131313",
"@	c #000000000000",
"#	c #79792B2B1717",
"                ",
"                ",
"                ",
"   ..           ",
"  ..X.          ",
" ooXX.          ",
"oo ...          ",
"   OOO++++++  @ ",
"  +++O+OOOO++@@ ",
" +++OOO+O++++@OO",
" +++OOOOOOOOO   ",
" +++OOOO  #     ",
"         #      ",
"          ##    ",
"                ",
"                "};
