/* XPM */
static char *mallard_48[] = {
/* columns rows colors chars-per-pixel */
"48 48 45 1 ",
"  c #15FF0C300C32",
". c #1AB911171118",
"X c #1C4D12B912BA",
"o c #1F7415FD15FE",
"O c #3D3E1E65183B",
"+ c #006232730FBC",
"@ c #03003C8D1368",
"# c #28E91FCB1FCB",
"$ c #2BDA23B92318",
"% c #3ABF27ED2436",
"& c #383F31743031",
"* c #3CFA365B3518",
"= c #41B43B4139FE",
"- c #43AA3DE03C31",
"; c #647E309B2445",
": c #059F46A81714",
"> c #0ADC5ADD1E6D",
", c #25BC6F572C95",
"< c #41E36F160F85",
"1 c #5F7F43A93C3B",
"2 c #5CFF4D314836",
"3 c #5A8056B85431",
"4 c #67E461DA618E",
"5 c #7E28978307F5",
"6 c #409C83D13ABD",
"7 c #8365ABB80F4D",
"8 c #FBEEFC94002E",
"9 c #8AFF86178618",
"0 c #8030993987DD",
"q c #9A989691965E",
"w c #B23E984D9222",
"e c #82CFA3538B8A",
"r c #856DAD6E8F36",
"t c #A6DFA3E9A351",
"y c #C78BBE02BB9D",
"u c #C57FC30BC30C",
"i c #D36FD1F4D1A8",
"p c #E838D81BD3EA",
"a c #E3C5DF00DDCE",
"s c #EE2AE214DEEF",
"d c #E9B7E8F9E8D3",
"f c #F41BEC0DE9F4",
"g c #FA0DF606F4FA",
"h c white",
"j c None",
/* pixels */
"jjjjjjjjjjjjjjjjjjjjjjjjjjjjjjjjjjjjjjjjjjjjjjjj",
"jjjjjjjjjjjjjjjjjjjjjjjjjjjjjjjjjjjjjjjjjjjjjjjj",
"jjjjjjjjjjjjjjjjjjjjjjjjjjjjjjjjjjjjjjjjjjjjjjjj",
"jjjjjjjjjjjjjjjjjjjjjjjjjjjjjjjjjjjjjjjjjjjjjjjj",
"jjjjjjjjjjjjjjjjjjjjjjjjjjjjjjjjjjjjjjjjjjjjjjjj",
"jjjjjjjjjjjjjjjjjjjjjjjjjjjjjjjjjjjjjjjjjjjjjjjj",
"jjjjjjjjjjjjjjjjjjjjjjjjjjjjjjjjjjjjjjjjjjjjjjjj",
"jjjjjjjjjjjjjjjjjjjjjjjjjjjjjjjjjjjjjjjjjjjjjjjj",
"jjjjjjjjjjjjjjjjjjjjjjjjjjjjjjjjjjjjjjjjjjjjjjjj",
"jjjjjjjjjj+++++jjjjjjjjjjjjjjjjjjjjjjjjjjjjjjjjj",
"jjjjjjjjj+++++++jjjjjjjjjjjjjjjjjjjjjjjjjjjjjjjj",
"jjjjjjjj+++++++++jjjjjjjjjjjjjjjjjjjjjjjjjjjjjjj",
"jjjjjjj+++++>>>>:+jjjjjjjjjjjjjjjjjjjjjjjjjjjjjj",
"jjjjjj7<:::+++>>:+jjjjjjjjjjjjjjjjjjjjjjjjjjjjjj",
"jjjjjj8<>>>>>6,>:+jjjjjjjjjjjjjjjjjjjjjjjjjjjjjj",
"jjjjj88886,>>>,>:+jjjjjjjjjjjjjjjjjjjjjjjjjjjjjj",
"jjjj88o886,>>>>:@+jjjjjjjjjjjjjjjjjjjjjjjjjjjjjj",
"jjj8888886,>>>>+++jjjjjjjjjjjjjjjjjjjjjjjjjjjjjj",
"j888888jj>:++++++jjjjjjjjjjjjjjjjjjjjjjjjjjjjjjj",
"88888jjjjj6::::>6jjjjjjjjjjjjjjjjjjjjjjjjjjjjjjj",
"888jjjjjjj66,,,6hjjjjjjjjjjjjjjjjjjjjjjjjjjjjjjj",
"jjjjjjjjjjhhhhhhijjjjiiiiiiiiiijjjjjjjjjjjjjjjjj",
"jjjjjjjjj3hhhhhhddiii1;;ooooooiiiiiijjjjj j  jjj",
"jjjjjjjjooo33fffff1i;i133333####oooiiiiiij jj jj",
"jjjjjjjo#ooo333p1ii;itihhhhhhhhhi    o*ijj j3 h9",
"jjjjjjoooooo12;ps1ii1hihhhhhhhhhhhhi** oi    9uh",
"jjjjj #o  o#;131ppsssffhhhsssssiiiiioooi   o3hhj",
"jjjj O    O;;1hhhhpsffffhfffiiiiiio  oi o#tihhjj",
"jjj .o    %11dhhhhfffffffspi33321=*&&&&  ooojjjj",
"jjj oO    &3hhhhhhhhhffffpp333333333hhhhhhhjjjjj",
"jjj o OO  &3hhhhhhhhhhhhhhhhhhhhhhhhhhhhjjjjjjjj",
"jjj . O.  &3hhhhhhhhhhhhhhhhhhhhhhhhhhhjjjjjjjjj",
"jjj       &3hhhhhhhhhhhhhhhhhhhhhhhhhhjjjjjjjjjj",
"jjj o Oo  &3hhhhhhhhhhhhhhhhhhhhhhjjjjjjjjjjjjjj",
"jjjjX o.  &3hhhhhhhhhhhhhhhhhhwwwjjjjjjjjjjjjjjj",
"jjjjjj    &3hhhhhhhhhhhjjjjjjj;;;jjjjjjjjjjjjjjj",
"jjjjjjjjjjjjjjjjjjjjjjjjjjjj;;jjjjjjjjjjjjjjjjjj",
"jjjjjjjjjjjjjjjjjjjjjjjjjjj;;;jjjjjjjjjjjjjjjjjj",
"jjjjjjjjjjjjjjjjjjjjjjjjjjj;;;jjjjjjjjjjjjjjjjjj",
"jjjjjjjjjjjjjjjjjjjjjjjjjjjjj;;;;;;jjjjjjjjjjjjj",
"jjjjjjjjjjjjjjjjjjjjjjjjjjjjjjj;;;;;jjjjjjjjjjjj",
"jjjjjjjjjjjjjjjjjjjjjjjjjjjjjjjj;;;;jjjjjjjjjjjj",
"jjjjjjjjjjjjjjjjjjjjjjjjjjjjjjjjjjjjjjjjjjjjjjjj",
"jjjjjjjjjjjjjjjjjjjjjjjjjjjjjjjjjjjjjjjjjjjjjjjj",
"jjjjjjjjjjjjjjjjjjjjjjjjjjjjjjjjjjjjjjjjjjjjjjjj",
"jjjjjjjjjjjjjjjjjjjjjjjjjjjjjjjjjjjjjjjjjjjjjjjj",
"jjjjjjjjjjjjjjjjjjjjjjjjjjjjjjjjjjjjjjjjjjjjjjjj",
"jjjjjjjjjjjjjjjjjjjjjjjjjjjjjjjjjjjjjjjjjjjjjjjj"
};
