/* XPM */
static char *mallard_test[] = {
/* columns rows colors chars-per-pixel */
"32 32 13 1 ",
"  c #15FF0C300C32",
". c #006232730FBC",
"X c #28E91FCB1FCB",
"o c #647E309B2445",
"O c #0ADC5ADD1E6D",
"+ c #5A8056B85431",
"@ c white",
"# c #FBEEFC94002E",
"$ c #A5DCC5AB0C3C",
"= c #E838D81BD3EA",
"- c #A6DFA3E9A351",
"; c  None",
": c #409C83D13ABD",
/* pixels */
/*white is @%@* */
";;;;;;;;;;;;;;;;;;;;;;;;;;;;;;;;",
";;;;;;;;;;;;;;;;;;;;;;;;;;;;;;;;",
";;;;;;;;;;;;;;;;;;;;;;;;;;;;;;;;",
";;;;;;;;;;;;;;;;;;;;;;;;;;;;;;;;",
";;;;;;;;;;;;;;;;;;;;;;;;;;;;;;;;",
";;;;;;;;;;;;;;;;;;;;;;;;;;;;;;;;",
";;;;;;....;;;;;;;;;;;;;;;;;;;;;;",
";;;;;......;;;;;;;;;;;;;;;;;;;;;",
";;;;....OOO.;;;;;;;;;;;;;;;;;;;;",
";;;;#OOOOOO.;;;;;;;;;;;;;;;;;;;;",
";;####:OOOO.;;;;;;;;;;;;;;;;;;;;",
";#####:OOO..;;;;;;;;;;;;;;;;;;;;",
"#####;O.....;;;;;;;;;;;;;;;;;;;;",
"###;;;@@@@@@;;;;;;;;;;;;;;;;;;;;",
";;;;;;@@@@@-+        ;;;;;;;  ;;",
";;;;;;@@@=@@+Xo+++++++X ;;;;; ;;",
";;;; X++++=@+o-@@@@@@-+        @",
";;; X  Xo+==++-@@@@@@-o     X+@@",
";;     o-@@@=-++==+++oX    X-@@;",
";; X   +@@@@@@++@=++++++++  X;;;",
";;X X  +@@@@@@@@@@@@@@@@@@;;;;;;",
";;     +@@@@@@@@@@@@@@@@@@;;;;;;",
";;X X  +@@@@@@@@@@@@@@@;;;;;;;;;",
";;;    +@@@@@@@@;;;;oo;;;;;;;;;;",
";;;;;;;;;;;;;;;;;;oo;;;;;;;;;;;;",
";;;;;;;;;;;;;;;;;;oo;;;;;;;;;;;;",
";;;;;;;;;;;;;;;;;;;ooooo;;;;;;;;",
";;;;;;;;;;;;;;;;;;;;;ooo;;;;;;;;",
";;;;;;;;;;;;;;;;;;;;;;;;;;;;;;;;",
";;;;;;;;;;;;;;;;;;;;;;;;;;;;;;;;",
";;;;;;;;;;;;;;;;;;;;;;;;;;;;;;;;",
";;;;;;;;;;;;;;;;;;;;;;;;;;;;;;;;"
};
