/* XPM */
static char * ccw_xpm[] = {
"16 16 3 1",
" 	c none",
".	c #000000000000",
"X	c #868682828686",
"                ",
"                ",
"  .  ......     ",
"  ..........    ",
"  ...XXXXXX..   ",
"  ....      ..  ",
"  .....     ..X ",
"   XXXXX    ..X ",
"            ..X ",
"            ..X ",
"   .       ...X ",
"   ..     ...XX ",
"    ........XX  ",
"     ......XX   ",
"      XXXXXX    ",
"                "};
