/* XPM */
static char * cw_xpm[] = {
"16 16 3 1",
" 	c none",
".	c #000000000000",
"X	c #868682828686",
"                ",
"                ",
"     ......  .  ",
"    ..........X ",
"   ..XXXXXX...X ",
"  ..XX    ....X ",
"  ..X    .....X ",
"  ..X     XXXXX ",
"  ..X           ",
"  ..X           ",
"  ...       .   ",
"   ...     ..X  ",
"    ........XX  ",
"     ......XX   ",
"      XXXXXX    ",
"                "};
