/* XPM */
static char * dir_xpm[] = {
"32 32 6 1",
" 	c none",
".	c #000000000000",
"X	c #FFFFFFFFC71B",
"o	c #FFFFFFFFFFFF",
"O	c #FFFFFFFF0000",
"+	c #861782078617",
"                                ",
"                                ",
"                                ",
"                                ",
"                                ",
"                                ",
"                                ",
"                                ",
"         ......                 ",
"        .XXXXXX.                ",
"       .XXXXXXXX.               ",
"     ...................        ",
"    .ooooooooooooooooooo.       ",
"   .oXXXXXXXXXXXXXXXXXXXO.      ",
"   .oXXXXXXXXXXXXXXXXXXXO.+     ",
"   .oXXXXXXXXXXXXXXXXXXXO.++    ",
"   .oXXXXXXXXXXXXXXXXXXXO.++    ",
"   .oXXXXXXXXXXXXXXXXXXXO.++    ",
"   .oXXXXXXXXXXXXXXXXXXXO.++    ",
"   .oXXXXXXXXXXXXXXXXXXXO.++    ",
"   .oXXXXXXXXXXXXXXXXXXXO.++    ",
"   .oXXXXXXXXXXXXXXXXXXXO.++    ",
"   .oXXXXXXXXXXXXXXXXXXXO.++    ",
"   .oXXXXXXXXXXXXXXXXXXXO.++    ",
"   .oXXXXXXXXXXXXXXXXXXXO.++    ",
"    .OOOOOOOOOOOOOOOOOOO..++    ",
"     ....................+++    ",
"      +++++++++++++++++++++     ",
"       +++++++++++++++++++      ",
"                                ",
"                                ",
"                                "};
