/* XPM */
static char * fliph_xpm[] = {
"16 16 3 1",
" 	c none",
".	c #000000000000",
"X	c #868682828686",
"   .   .        ",
"  ..X  .X       ",
" ...X  .X       ",
".............   ",
".............X  ",
" ...XXX.XXXXXX  ",
"  ..X  .X       ",
"   .X  .X  .    ",
"    X  .X  ..   ",
"       .X  ...  ",
"  ............. ",
"  .............X",
"       .XXX...XX",
"       .X  ..XX ",
"       .X  .XX  ",
"        X   X   "};
