/* XPM */
static char * flipv_xpm[] = {
"16 16 3 1",
" 	c none",
".	c #000000000000",
"X	c #861782078617",
"   ..           ",
"  ....          ",
" ......   ..    ",
"........  ..X   ",
" XX..XXXX ..X   ",
"   ..X    ..X   ",
"   ..X    ..X   ",
"............... ",
" XX..XXXXX..XXXX",
"   ..X    ..X   ",
"   ..X    ..X   ",
"   ..X ........ ",
"   ..X  ......XX",
"    XX   ....XX ",
"          ..XX  ",
"           XX   "};
