/* XPM */
static char * next_xpm[] = {
"16 16 3 1",
" 	c none",
".	c #000000000000",
"X	c #868682828686",
"                ",
"                ",
"        .       ",
"        ..      ",
"        ...     ",
"        ....    ",
"  ...........   ",
"  ............  ",
"  ...........XX ",
"   XXXXX....XX  ",
"        ...XX   ",
"        ..XX    ",
"        .XX     ",
"         X      ",
"                ",
"                "};
