/* XPM */
static char * prev_xpm[] = {
"16 16 3 1",  
" 	c none",
".	c #000000000000",
"X	c #868682828686",
"                ",
"                ",
"      .         ",
"     ..X        ",
"    ...X        ",
"   ....X        ",
"  ...........   ",
" ............X  ",
"  ...........X  ",
"   ....XXXXXXX  ",
"    ...X        ",
"     ..X        ",
"      .X        ",
"       X        ",
"                ",
"                "};
