/* XPM */
static char * question_xpm[] = {
"32 32 3 1",
" 	c none",
".	c #000000000000",
"X	c #861782078617",
"                                ",
"                                ",
"                                ",
"                                ",
"                                ",
"                                ",
"             ......             ",
"           .........            ",
"           ....XX....           ",
"          ....XX X...           ",
"          ...XX   ...X          ",
"          ...X   ....X          ",
"           XXX   ...XX          ",
"                ....X           ",
"               ....XX           ",
"               ...XX            ",
"              ...XX             ",
"              ...X              ",
"              ...X              ",
"              ...X              ",
"               XXX              ",
"                                ",
"              ...               ",
"              ...X              ",
"              ...X              ",
"               XXX              ",
"                                ",
"                                ",
"                                ",
"                                ",
"                                ",
"                                "};
