/* XPM */
static char * unknown_xpm[] = {
"32 32 4 1",
" 	c none",
".	c #000000000000",
"X	c #861782078617",
"o	c #FFFFFFFFFFFF",
"                                ",
"                                ",
"                                ",
"               .........        ",
"              ..........X       ",
"             ...Xooooo..XX      ",
"            ..o.Xooooo..XX      ",
"           ..oo.Xooooo..XX      ",
"          ..ooo.Xooooo..XX      ",
"         ..oooo.Xooooo..XX      ",
"        ..ooooo.Xooooo..XX      ",
"       .........Xooooo..XX      ",
"       ..XXXXXXXXooooo..XX      ",
"       ..ooooooooooooo..XX      ",
"       ..ooooo...ooooo..XX      ",
"       ..oooo.XXX.oooo..XX      ",
"       ..oooo.Xoo.Xooo..XX      ",
"       ..oooooXoo.Xooo..XX      ",
"       ..ooooooo.XXooo..XX      ",
"       ..oooooo.XXoooo..XX      ",
"       ..oooooo.Xooooo..XX      ",
"       ..oooooooXooooo..XX      ",
"       ..oooooo.oooooo..XX      ",
"       ..oooooooXooooo..XX      ",
"       ..ooooooooooooo..XX      ",
"       .................XX      ",
"       ................XXX      ",
"        XXXXXXXXXXXXXXXXXX      ",
"         XXXXXXXXXXXXXXXXX      ",
"                                ",
"                                ",
"                                "};
