/* XPM */
static char * zoomin_xpm[] = {
"16 16 3 1",
" 	c none",
".	c #000000000000",
"X	c #868682828686",
"                ",
"    .....       ",
"   .XXXXX.      ",
"  .XX     .     ",
" .XX  .    .    ",
" .X   .X   .X   ",
" .X .....  .X   ",
" .X  X.XXX .X   ",
" .X   .X   .X   ",
"  .    X  .XX   ",
"   .     ...    ",
"    .....X...   ",
"     XXXXX ...  ",
"            ..X ",
"             XX ",
"                "};
